<?xml version="1.0" encoding="utf-8"?>
<!-- Generator: Adobe Illustrator 16.0.1, SVG Export Plug-In . SVG Version: 6.00 Build 0)  -->
<!DOCTYPE svg PUBLIC "-//W3C//DTD SVG 1.1//EN" "http://www.w3.org/Graphics/SVG/1.1/DTD/svg11.dtd">
<svg version="1.1" xmlns="http://www.w3.org/2000/svg" xmlns:xlink="http://www.w3.org/1999/xlink" x="0px" y="0px" width="700px"
	 height="700px" viewBox="0 0 700 700" enable-background="new 0 0 700 700" xml:space="preserve">
<g id="Ebene_4">
	<path d="M697.598,349.968c0,191.958-155.672,347.63-347.596,347.63c-191.929,0-347.601-155.672-347.601-347.63
		c0-191.956,155.672-347.566,347.601-347.566C541.926,2.401,697.598,158.012,697.598,349.968z"/>
</g>
<g id="Ebene_1">
	<g id="Ebene_2_Kopie">
		<path fill="none" stroke="#FFFFFF" stroke-width="0.545" stroke-miterlimit="10" d="M349.998,658.976
			c-42.65,0-77.244-138.376-77.244-309.005s34.594-308.949,77.244-308.949"/>
		<path fill="none" stroke="#FFFFFF" stroke-width="0.545" stroke-miterlimit="10" stroke-dasharray="3.27" d="M350.711,658.976
			c42.65,0,77.245-138.376,77.245-309.005S393.361,41.021,350.711,41.021"/>
		<path fill="none" stroke="#FFFFFF" stroke-width="0.545" stroke-miterlimit="10" d="M350,41.021
			c106.623,0,193.108,138.32,193.108,308.949S456.623,658.976,350,658.976"/>
		<path fill="none" stroke="#FFFFFF" stroke-width="0.545" stroke-miterlimit="10" stroke-dasharray="3.27" d="M349.608,41.021
			c-106.623,0-193.109,138.32-193.109,308.949s86.486,309.005,193.109,309.005"/>
		<path fill="none" stroke="#FFFFFF" stroke-width="0.545" stroke-miterlimit="10" d="M41.021,349.998
			c0-42.65,138.32-77.244,308.949-77.244s309.005,34.594,309.005,77.244"/>
		<path fill="none" stroke="#FFFFFF" stroke-width="0.545" stroke-miterlimit="10" stroke-dasharray="3.27" d="M41.021,349.998
			c0,42.651,138.32,77.244,308.949,77.244s309.005-34.593,309.005-77.244"/>
		<path fill="none" stroke="#FFFFFF" stroke-width="0.545" stroke-miterlimit="10" d="M41.021,349.997
			c0-149.273,138.32-270.353,308.949-270.353s309.005,121.079,309.005,270.353"/>
		<path fill="none" stroke="#FFFFFF" stroke-width="0.545" stroke-miterlimit="10" stroke-dasharray="3.27" d="M41.021,349.993
			c0,149.273,138.32,270.353,308.949,270.353s309.005-121.079,309.005-270.353"/>
		<path fill="none" stroke="#FFFFFF" stroke-width="1.09" stroke-miterlimit="10" d="M658.976,349.971
			c0,170.629-138.376,309.005-308.975,309.005c-170.604,0-308.979-138.376-308.979-309.005S179.397,41.021,350.001,41.021
			C520.6,41.021,658.976,179.342,658.976,349.971z"/>
		<path fill="none" stroke="#FFFFFF" stroke-width="3.27" stroke-miterlimit="10" d="M670.562,349.97
			c0,177.027-143.564,320.592-320.561,320.592C173,670.562,29.436,526.997,29.436,349.97S173,29.436,350.001,29.436
			C526.997,29.436,670.562,172.942,670.562,349.97z"/>
		<g>
			<path fill="none" stroke="#FFFFFF" stroke-width="1.5" stroke-miterlimit="10" d="M275.043,275.042
				c5.146-82.61,18.608-152.068,36.621-193.339"/>
			<path fill="none" stroke="#FFFFFF" stroke-width="1.5" stroke-miterlimit="10" d="M461.616,97.84
				c39.414,44.746,67.889,112.55,77.729,191.123"/>
			<path fill="none" stroke="#FFFFFF" stroke-width="1.5" stroke-miterlimit="10" d="M275.044,275.042
				c23.989-1.494,49.087-2.288,74.927-2.288c71.352,0,137.062,6.05,189.374,16.208"/>
			<path fill="none" stroke="#FFFFFF" stroke-width="1.5" stroke-miterlimit="10" d="M311.663,81.703
				c12.551-1.358,25.336-2.059,38.308-2.059c39.368,0,77.019,6.445,111.649,18.194"/>
		</g>
		<g display="none">
			<g display="inline">
				<g>
					
						<line fill="none" stroke="#FFFFFF" stroke-width="2" stroke-miterlimit="10" x1="349.966" y1="-186.026" x2="349.966" y2="886.023"/>
					<g>
						<circle fill="#FFFFFF" cx="349.966" cy="-185.801" r="4.512"/>
					</g>
					<g>
						<circle fill="#FFFFFF" cx="349.966" cy="885.798" r="4.512"/>
					</g>
				</g>
			</g>
			<g display="inline">
				<g>
					
						<line fill="none" stroke="#FFFFFF" stroke-width="2" stroke-miterlimit="10" x1="-114.702" y1="618.01" x2="813.308" y2="81.986"/>
					<g>
						<circle fill="#FFFFFF" cx="-114.506" cy="617.897" r="4.512"/>
					</g>
					<g>
						<circle fill="#FFFFFF" cx="813.113" cy="82.099" r="4.512"/>
					</g>
				</g>
			</g>
			<g display="inline">
				<g>
					
						<line fill="none" stroke="#FFFFFF" stroke-width="2" stroke-miterlimit="10" x1="-114.69" y1="81.995" x2="813.257" y2="617.981"/>
					<g>
						<circle fill="#FFFFFF" cx="-114.495" cy="82.108" r="4.512"/>
					</g>
					<g>
						<circle fill="#FFFFFF" cx="813.062" cy="617.869" r="4.512"/>
					</g>
				</g>
			</g>
		</g>
		<path stroke="#FFFFFF" stroke-width="1.5" stroke-miterlimit="10" d="M404.98,349.998c0,30.371-24.632,55.004-55,55.004
			c-30.37,0-55-24.634-55-55.004c0-30.375,24.63-54.996,55-54.996C380.349,295.002,404.98,319.623,404.98,349.998z"/>
		<g>
			<g>
				<g>
					
						<line fill="none" stroke="#FFFFFF" stroke-width="0.545" stroke-miterlimit="10" x1="350.001" y1="350" x2="349.847" y2="348.372"/>
					
						<line fill="none" stroke="#FFFFFF" stroke-width="0.545" stroke-miterlimit="10" stroke-dasharray="3.2388,3.2388" x1="349.542" y1="345.148" x2="330.195" y2="140.394"/>
					
						<line fill="none" stroke="#FFFFFF" stroke-width="0.545" stroke-miterlimit="10" x1="330.042" y1="138.781" x2="329.889" y2="137.153"/>
				</g>
			</g>
			
				<line fill="none" stroke="#FFFFFF" stroke-width="0.545" stroke-miterlimit="10" stroke-dasharray="3.27" x1="350.001" y1="350" x2="365.444" y2="126.734"/>
			
				<line fill="none" stroke="#FFFFFF" stroke-width="0.545" stroke-miterlimit="10" stroke-dasharray="3.27" x1="350.001" y1="350" x2="495.7" y2="208.813"/>
			
				<line fill="none" stroke="#FFFFFF" stroke-width="0.545" stroke-miterlimit="10" stroke-dasharray="3.27" x1="392.742" y1="118.713" x2="350.002" y2="350.003"/>
			
				<line fill="none" stroke="#FFFFFF" stroke-width="0.545" stroke-miterlimit="10" stroke-dasharray="3.27" x1="371.438" y1="246.667" x2="350.002" y2="350.003"/>
			
				<line fill="none" stroke="#FFFFFF" stroke-width="0.545" stroke-miterlimit="10" stroke-dasharray="3.27" x1="415.04" y1="224.835" x2="349.998" y2="349.998"/>
			
				<line fill="none" stroke="#FFFFFF" stroke-width="0.545" stroke-miterlimit="10" stroke-dasharray="3.27" x1="350.002" y1="350.003" x2="428.665" y2="177.615"/>
		</g>
		<path d="M381.051,350c0,17.157-13.916,31.073-31.07,31.073c-17.157,0-31.07-13.916-31.07-31.073
			c0-17.159,13.914-31.068,31.07-31.068C367.135,318.932,381.051,332.84,381.051,350z"/>
		<g>
			<path fill="#FFFFFF" d="M372.006,349.997c0,12.148-9.852,22.002-22,22.002s-22-9.854-22-22.002c0-12.151,9.851-21.997,22-21.997
				S372.006,337.846,372.006,349.997z"/>
			<path fill="none" stroke="#FFFFFF" stroke-width="1.4111" stroke-miterlimit="10" d="M376.007,349.997
				c0,14.355-11.645,26.003-26.001,26.003c-14.357,0-26-11.647-26-26.003c0-14.359,11.643-25.999,26-25.999
				C364.362,323.999,376.007,335.638,376.007,349.997z"/>
			<g>
				
					<line fill="none" stroke="#000000" stroke-width="1.4111" stroke-miterlimit="10" x1="350.008" y1="346.99" x2="350.008" y2="352.989"/>
				
					<line fill="none" stroke="#000000" stroke-width="1.4111" stroke-miterlimit="10" x1="353.009" y1="349.989" x2="347.008" y2="349.989"/>
			</g>
		</g>
	</g>
	<g>
		
			<line fill="none" stroke="#FFFFFF" stroke-width="1.635" stroke-linecap="round" stroke-miterlimit="10" x1="392.742" y1="118.713" x2="428.665" y2="177.615"/>
		
			<line fill="none" stroke="#FFFFFF" stroke-width="1.635" stroke-linecap="round" stroke-miterlimit="10" x1="428.665" y1="177.615" x2="415.04" y2="224.835"/>
		
			<line fill="none" stroke="#FFFFFF" stroke-width="1.635" stroke-linecap="round" stroke-miterlimit="10" x1="415.04" y1="224.835" x2="371.438" y2="246.667"/>
		
			<line fill="none" stroke="#FFFFFF" stroke-width="1.635" stroke-linecap="round" stroke-miterlimit="10" x1="415.04" y1="224.835" x2="495.7" y2="208.813"/>
		
			<line fill="none" stroke="#FFFFFF" stroke-width="1.635" stroke-linecap="round" stroke-miterlimit="10" x1="365.444" y1="126.734" x2="392.742" y2="118.713"/>
		
			<line fill="none" stroke="#FFFFFF" stroke-width="1.635" stroke-linecap="round" stroke-miterlimit="10" x1="329.889" y1="137.153" x2="365.444" y2="126.734"/>
	</g>
	<g>
		<circle fill="#FFFFFF" cx="409.194" cy="236.061" r="3.09"/>
	</g>
	<g>
		<circle fill="#FFFFFF" cx="416.373" cy="205.088" r="3.862"/>
	</g>
	<circle fill="#FFFFFF" cx="356.18" cy="261.131" r="6.18"/>
	<path fill="#FFFFFF" d="M369.264,283.556c0,2.984-2.422,5.406-5.405,5.406c-2.986,0-5.409-2.422-5.409-5.406
		c0-2.986,2.423-5.407,5.409-5.407C366.842,278.148,369.264,280.569,369.264,283.556z"/>
	<circle fill="#FFFFFF" cx="464.034" cy="239.645" r="5.407"/>
	<circle fill="#FFFFFF" cx="333.792" cy="175.297" r="3.089"/>
	<circle fill="#FFFFFF" cx="387.213" cy="148.678" r="2.317"/>
	<g>
		<path d="M428.665,182.295c-2.58,0-4.68-2.099-4.68-4.68s2.1-4.68,4.68-4.68s4.679,2.099,4.679,4.68
			S431.245,182.295,428.665,182.295z"/>
		<path fill="#FFFFFF" d="M428.665,173.753c2.132,0,3.861,1.729,3.861,3.862s-1.729,3.862-3.861,3.862
			c-2.134,0-3.862-1.729-3.862-3.862S426.531,173.753,428.665,173.753 M428.665,172.118c-3.031,0-5.497,2.466-5.497,5.497
			s2.466,5.497,5.497,5.497c3.03,0,5.496-2.466,5.496-5.497S431.695,172.118,428.665,172.118L428.665,172.118z"/>
	</g>
	<g>
		<path d="M495.7,215.038c-3.433,0-6.226-2.792-6.226-6.225s2.793-6.225,6.226-6.225s6.225,2.792,6.225,6.225
			S499.133,215.038,495.7,215.038z"/>
		<path fill="#FFFFFF" d="M495.7,203.406c2.984,0,5.407,2.421,5.407,5.407s-2.423,5.407-5.407,5.407
			c-2.986,0-5.408-2.421-5.408-5.407S492.714,203.406,495.7,203.406 M495.7,201.771c-3.884,0-7.043,3.159-7.043,7.042
			s3.159,7.042,7.043,7.042c3.883,0,7.042-3.159,7.042-7.042S499.583,201.771,495.7,201.771L495.7,201.771z"/>
	</g>
	<g>
		<path d="M329.89,141.062c-2.155,0-3.908-1.753-3.908-3.908c0-2.154,1.753-3.907,3.908-3.907c2.154,0,3.906,1.753,3.906,3.907
			C333.796,139.309,332.043,141.062,329.89,141.062z"/>
		<path fill="#FFFFFF" d="M329.89,134.063c1.705,0,3.089,1.383,3.089,3.09s-1.384,3.091-3.089,3.091
			c-1.707,0-3.091-1.384-3.091-3.091S328.183,134.063,329.89,134.063 M329.89,132.429c-2.606,0-4.726,2.119-4.726,4.725
			c0,2.606,2.12,4.726,4.726,4.726c2.604,0,4.724-2.12,4.724-4.726C334.613,134.548,332.494,132.429,329.89,132.429L329.89,132.429z
			"/>
	</g>
	<g>
		<path d="M365.444,133.731c-3.858,0-6.997-3.139-6.997-6.997c0-3.858,3.139-6.996,6.997-6.996s6.997,3.138,6.997,6.996
			C372.441,130.593,369.303,133.731,365.444,133.731z"/>
		<path fill="#FFFFFF" d="M365.444,120.556c3.411,0,6.18,2.766,6.18,6.179c0,3.412-2.769,6.18-6.18,6.18s-6.18-2.768-6.18-6.18
			C359.265,123.321,362.033,120.556,365.444,120.556 M365.444,118.921c-4.309,0-7.814,3.505-7.814,7.813
			c0,4.309,3.506,7.814,7.814,7.814s7.814-3.505,7.814-7.814C373.259,122.426,369.753,118.921,365.444,118.921L365.444,118.921z"/>
	</g>
	<g>
		<path d="M392.742,121.848c-1.729,0-3.134-1.406-3.134-3.135s1.405-3.135,3.134-3.135s3.135,1.406,3.135,3.135
			S394.471,121.848,392.742,121.848z"/>
		<path fill="#FFFFFF" d="M392.742,116.396c1.28,0,2.317,1.037,2.317,2.317c0,1.279-1.037,2.317-2.317,2.317
			s-2.316-1.038-2.316-2.317C390.426,117.433,391.462,116.396,392.742,116.396 M392.742,114.761c-2.179,0-3.951,1.773-3.951,3.952
			s1.772,3.952,3.951,3.952c2.18,0,3.952-1.773,3.952-3.952S394.922,114.761,392.742,114.761L392.742,114.761z"/>
	</g>
	<g>
		<path d="M371.439,252.891c-3.433,0-6.225-2.792-6.225-6.224s2.792-6.224,6.225-6.224c3.432,0,6.223,2.792,6.223,6.224
			S374.871,252.891,371.439,252.891z"/>
		<path fill="#FFFFFF" d="M371.439,241.261c2.985,0,5.405,2.42,5.405,5.406c0,2.984-2.42,5.406-5.405,5.406
			c-2.984,0-5.407-2.422-5.407-5.406C366.032,243.681,368.455,241.261,371.439,241.261 M371.439,239.626
			c-3.883,0-7.042,3.158-7.042,7.041s3.159,7.041,7.042,7.041c3.882,0,7.04-3.158,7.04-7.041S375.321,239.626,371.439,239.626
			L371.439,239.626z"/>
	</g>
	<g>
		<path d="M415.04,228.742c-2.154,0-3.906-1.753-3.906-3.908c0-2.154,1.752-3.906,3.906-3.906s3.906,1.752,3.906,3.906
			C418.946,226.989,417.194,228.742,415.04,228.742z"/>
		<path fill="#FFFFFF" d="M415.04,221.745c1.706,0,3.089,1.384,3.089,3.089c0,1.707-1.383,3.091-3.089,3.091
			c-1.707,0-3.089-1.384-3.089-3.091C411.951,223.129,413.333,221.745,415.04,221.745 M415.04,220.11
			c-2.604,0-4.724,2.119-4.724,4.724c0,2.606,2.119,4.726,4.724,4.726s4.724-2.12,4.724-4.726
			C419.764,222.229,417.645,220.11,415.04,220.11L415.04,220.11z"/>
	</g>
</g>
<g id="Ebene_5" display="none">
	<g display="inline">
		<g>
			<polygon stroke="#FFFFFF" stroke-width="4" stroke-miterlimit="10" points="318.513,432.391 295.294,409.173 272.076,432.391 
				69.084,432.391 69.084,687.509 522.627,687.509 522.627,432.391 			"/>
		</g>
	</g>
	<g display="inline">
		<rect x="101.372" y="456.192" stroke="#FFFFFF" stroke-miterlimit="10" width="388.968" height="65.426"/>
		<rect x="101.372" y="439.478" stroke="#FFFFFF" stroke-miterlimit="10" width="388.968" height="50.146"/>
		<rect x="101.372" y="489.623" stroke="#FFFFFF" stroke-miterlimit="10" width="99.301" height="16.098"/>
		<rect x="195.705" y="505.521" stroke="#FFFFFF" stroke-miterlimit="10" width="116.301" height="16.098"/>
		<rect x="312.006" y="505.521" stroke="#FFFFFF" stroke-miterlimit="10" width="109.417" height="16.098"/>
		<rect x="200.673" y="489.623" stroke="#FFFFFF" stroke-miterlimit="10" width="106.417" height="16.098"/>
		<rect x="307.089" y="489.623" stroke="#FFFFFF" stroke-miterlimit="10" width="97.25" height="16.098"/>
		<rect x="404.34" y="489.623" stroke="#FFFFFF" stroke-miterlimit="10" width="86" height="16.098"/>
		<rect x="101.372" y="505.521" stroke="#FFFFFF" stroke-miterlimit="10" width="94.333" height="16.098"/>
		<text transform="matrix(1 0 0 1 109.5874 473.7812)"><tspan x="0" y="0" fill="#FFFFFF" font-family="'AkkuratStd'" font-size="26">Rigel</tspan><tspan x="61.541" y="0" fill="#FFFFFF" font-family="'AkkuratStd-Bold'" font-size="26"> </tspan><tspan x="67.235" y="0" fill="#FFFFFF" font-family="'AkkuratStd'" font-size="26">(</tspan><tspan x="75.373" y="0" fill="#FFFFFF" font-family="'MyriadPro-Regular'" font-size="26">β</tspan><tspan x="90.192" y="0" fill="#FFFFFF" font-family="'AkkuratStd'" font-size="26"> Orionis)</tspan></text>
		<text transform="matrix(1 0 0 1 111.0874 500.3291)"><tspan x="0" y="0" fill="#FFFFFF" font-family="'AkkuratStd-Bold'" font-size="6">Flamsteed-Bez.: 19 Orionis             Bonner Durchm.: BD −8° 1061              Bright-Star-Kat.: HR 1713</tspan><tspan x="284.244" y="0" fill="#FFFFFF" font-family="'AkkuratStd-Bold'" font-size="6" letter-spacing="2">	</tspan><tspan x="288.176" y="0" fill="#FFFFFF" font-family="'AkkuratStd-Bold'" font-size="6">          HD-Katalog: HD 34085              </tspan><tspan x="0" y="15.5" fill="#FFFFFF" font-family="'AkkuratStd-Bold'" font-size="6">SAO-Katalog: SAO 13190                Tycho-Katalog: TYC 5331-1752-1             Hipparcos-Katalog: HIP 24436</tspan></text>
	</g>
	<rect x="101.372" y="527.305" display="inline" stroke="#FFFFFF" stroke-miterlimit="10" width="388.968" height="153.035"/>
	<rect x="112.837" y="538.094" display="inline" fill="none" width="155.834" height="157.336"/>
	<text transform="matrix(1 0 0 1 112.8374 546.9258)" display="inline"><tspan x="0" y="0" fill="#FFFFFF" font-family="'AkkuratStd-Bold'" font-size="6">Masse</tspan><tspan x="0" y="16" fill="#FFFFFF" font-family="'AkkuratStd-Bold'" font-size="6">Radius</tspan><tspan x="0" y="32" fill="#FFFFFF" font-family="'AkkuratStd-Bold'" font-size="6">Leuchtkraft</tspan><tspan x="0" y="48" fill="#FFFFFF" font-family="'AkkuratStd-Bold'" font-size="6">Sternbild</tspan><tspan x="0" y="64" fill="#FFFFFF" font-family="'AkkuratStd-Bold'" font-size="6">Entfernung</tspan></text>
	<rect x="259.339" y="538.094" display="inline" fill="none" width="249.336" height="157.336"/>
	<text transform="matrix(1 0 0 1 259.3389 546.7578)" display="inline"><tspan x="0" y="0" fill="#FFFFFF" font-family="'AkkuratStd'" font-size="12">17 M</tspan><tspan x="0" y="16" fill="#FFFFFF" font-family="'AkkuratStd'" font-size="12">62 R</tspan><tspan x="0" y="32" fill="#FFFFFF" font-family="'AkkuratStd'" font-size="12">40600 L</tspan><tspan x="0" y="48" fill="#FFFFFF" font-family="'AkkuratStd'" font-size="12">Orion</tspan><tspan x="0" y="64" fill="#FFFFFF" font-family="'AkkuratStd'" font-size="12">(770 ± 130) Lj ((235 ± 40) pc)</tspan></text>
	
		<line display="inline" fill="none" stroke="#FFFFFF" stroke-miterlimit="10" x1="112.837" y1="546.674" x2="481.007" y2="546.674"/>
</g>
</svg>
